<svg width="10" height="12" fill="none" xmlns="http://www.w3.org/2000/svg"><path d="M.632 12a.37.37 0 0 1-.272-.112.37.37 0 0 1-.112-.272V1.2c0-.117.032-.213.096-.288A.39.39 0 0 1 .632.8H4.92c1.28 0 2.288.304 3.024.912.736.597 1.104 1.477 1.104 2.64s-.368 2.043-1.104 2.64c-.725.587-1.733.88-3.024.88H2.536v3.744a.37.37 0 0 1-.112.272.339.339 0 0 1-.272.112H.632ZM4.84 6.096c.619 0 1.093-.144 1.424-.432.33-.299.496-.736.496-1.312 0-.555-.16-.987-.48-1.296-.32-.32-.8-.48-1.44-.48H2.504v3.52H4.84Z" fill="#2959CE"/></svg>